<?xml version="1.0" encoding="UTF-8"?>
<svg width="126px" height="126px" viewBox="0 0 126 126" version="1.1" xmlns="http://www.w3.org/2000/svg" xmlns:xlink="http://www.w3.org/1999/xlink">
    <title>确认</title>
    <g id="Coinbase" stroke="none" stroke-width="1" fill="none" fill-rule="evenodd">
        <g id="搬砖再次确认" transform="translate(-312.000000, -364.000000)" fill="#353F52" fill-rule="nonzero">
            <g id="编组-6" transform="translate(54.000000, 320.000000)">
                <g id="确认" transform="translate(258.000000, 44.000000)">
                    <path d="M62.9996825,7.0499232e-15 C28.260703,7.0499232e-15 7.0499232e-15,28.260703 7.0499232e-15,62.9996825 C7.0499232e-15,97.738662 28.261338,126 62.9996825,126 C97.738662,126 126,97.738662 126,62.9996825 C126,28.260703 97.738662,7.0499232e-15 62.9996825,7.0499232e-15 Z M62.9996825,122.200156 C30.3568401,122.200156 3.79920877,95.6431599 3.79920877,62.9996825 C3.79920877,30.3562051 30.3568401,3.79920877 62.9996825,3.79920877 C95.6418899,3.79920877 122.200156,30.3568401 122.200156,62.9996825 C122.200156,95.6418899 95.6418899,122.200156 62.9996825,122.200156 Z" id="形状"></path>
                    <path d="M93.0783923,35.7181504 L51.408381,78.0377674 L32.9660577,58.9947335 C31.9108954,57.9042952 30.4646774,57.2793154 28.9474519,57.2581021 C27.4302265,57.2368888 25.9671007,57.8211913 24.8818647,58.8817034 C22.6123724,61.0934106 22.5666524,64.7325992 24.7631196,66.9925665 L47.2681769,90.2412095 C47.2815119,90.2634345 47.3056419,90.2634345 47.3151669,90.2767696 C47.329137,90.2881996 47.331042,90.3218546 47.346282,90.3218546 C47.7107723,90.697775 48.1673378,90.9200252 48.5934232,91.1708504 C48.8080534,91.2902306 48.9820436,91.4737457 49.2036588,91.5594708 C49.8879153,91.8422945 50.6216324,91.986059 51.362026,91.9824501 C52.0931205,91.9833377 52.8176158,91.8440863 53.4962631,91.5721708 C53.7280383,91.4769208 53.8937735,91.2953106 54.1033237,91.1829155 C54.5389341,90.9397102 54.9789895,90.72381 55.3428449,90.3542396 C55.3542749,90.3542396 55.3587199,90.3218546 55.3790399,90.3218546 C55.3888115,90.3021379 55.4049085,90.2862645 55.42476,90.2767696 L101.204495,43.7953584 C103.417473,41.5303112 103.400328,37.9050926 101.15179,35.6794154 C98.9223031,33.4511982 95.2926395,33.4600882 93.0783923,35.7181504 L93.0783923,35.7181504 Z" id="路径"></path>
                </g>
            </g>
        </g>
    </g>
</svg>