<?xml version="1.0" encoding="UTF-8"?>
<svg width="126px" height="126px" viewBox="0 0 126 126" version="1.1" xmlns="http://www.w3.org/2000/svg" xmlns:xlink="http://www.w3.org/1999/xlink">
    <title>2FA 黑</title>
    <g id="Coinbase" stroke="none" stroke-width="1" fill="none" fill-rule="evenodd">
        <g id="解除绑定" transform="translate(-311.000000, -364.000000)" fill-rule="nonzero">
            <g id="编组-2" transform="translate(56.000000, 320.000000)">
                <g id="2FA-黑" transform="translate(255.000000, 44.000000)">
                    <path d="M62.9974776,125.999952 C97.7954117,125.999952 126,97.7928639 126,63.0000021 C126,28.204618 97.7903671,5.22378647e-05 62.9974776,5.22378647e-05 C28.2045882,5.22378647e-05 0,28.204618 0,62.9974798 C0,97.7953862 28.2045882,125.999952 62.9974776,125.999952 Z" id="路径" fill="#F2F2F2"></path>
                    <path d="M62.9974776,103.087211 C40.8590703,103.087211 22.9102373,85.1409142 22.9102373,63 C22.9102373,40.8540454 40.8540257,22.9102714 63,22.9102714 C74.0654201,22.9102714 84.0865997,27.397476 91.3483604,34.6516641 L107.546703,18.4533346 C95.7438477,6.61965986 79.7110352,-0.0214885224 62.9974776,0 C28.2045882,0 0,28.204618 0,62.9974798 C0,97.7953862 28.2045882,126 62.9974776,126 C79.7111034,126.0206 95.7440733,119.38067 107.549225,107.549192 L91.3508828,91.3508624 C83.8358729,98.8755905 73.6347026,103.099452 63,103.089733 L62.9974776,103.089733 L62.9974776,103.087211 Z" id="路径" fill="#E6E6E6"></path>
                    <path d="M103.08724,62.9974798 L83.0423589,62.9974798 C83.0436885,53.974617 77.0156549,46.0632151 68.3159519,43.6700286 C59.6162488,41.2768421 50.3898959,44.9919407 45.7760925,52.7459659 C41.1622892,60.4999912 42.2986257,70.3810919 48.5521479,76.8853656 L48.537014,76.9030219 L73.3616928,101.727681 C90.4756375,97.159762 103.08724,81.5541773 103.08724,63.0000021 L103.084718,62.9974798 L103.08724,62.9974798 Z" id="路径" fill-opacity="0.1" fill="#000000"></path>
                    <path d="M125.992433,62.9974798 L103.082196,62.9974798 C103.082196,81.5541773 90.4705929,97.159762 73.3616928,101.727681 L91.0507266,119.419223 C111.764023,109.10294 125.992433,87.7136791 125.992433,62.9949575 L125.992433,62.9974798 Z" id="路径" fill-opacity="0.1" fill="#000000"></path>
                    <path d="M114.54362,57.2692945 L62.9974776,57.2692945 C59.8345822,57.2692945 57.2705489,59.8333257 57.2705489,62.9962186 C57.2705489,66.1591115 59.8345822,68.7231441 62.9974776,68.7231441 L114.536053,68.7231441 C116.581637,68.7244946 118.472556,67.6344384 119.496519,65.8635879 C120.520481,64.0927375 120.521923,61.910127 119.500302,60.1379248 C118.478681,58.3657226 116.589204,57.2731684 114.54362,57.2718168 L114.54362,57.2692945 Z" id="路径" fill="#AEAEAE"></path>
                    <path d="M114.54362,57.2692945 L62.9974776,57.2692945 C59.8345822,57.2692945 57.2705489,59.8333257 57.2705489,62.9962186 C57.2705489,66.1591115 59.8345822,68.7231441 62.9974776,68.7231441 L114.536053,68.7231441 C116.581637,68.7244946 118.472556,67.6344384 119.496519,65.8635879 C120.520481,64.0927375 120.521923,61.910127 119.500302,60.1379248 C118.478681,58.3657226 116.589204,57.2731684 114.54362,57.2718168 L114.54362,57.2692945 Z M11.4513352,67.2955106 C13.8236809,67.2955106 15.7468471,65.3723459 15.7468471,63.0000021 C15.7468471,60.6276583 13.8236809,58.7044937 11.4513352,58.7044937 C9.07898963,58.7044937 7.15582357,60.6276584 7.15582357,63.0000021 C7.15582357,65.3723459 9.07898963,67.2955106 11.4513352,67.2955106 Z M62.9999999,15.749409 C65.3723456,15.749409 67.2955118,13.8262444 67.2955118,11.4539006 C67.2955118,9.08155677 65.3723456,7.15839213 62.9999999,7.15839213 C60.6688881,7.21489249 58.8085701,9.12084487 58.8085701,11.4526394 C58.8085701,13.784434 60.6688881,15.6903864 62.9999999,15.7468867 L62.9999999,15.749409 L62.9999999,15.749409 Z M62.9999999,118.836567 C65.3716491,118.899254 67.3450683,117.027472 67.407755,114.655824 C67.4704418,112.284177 65.5986579,110.31076 63.2270088,110.248073 C60.8553597,110.185386 58.8819406,112.057169 58.8192539,114.428816 C58.7565671,116.800463 60.6283509,118.773881 62.9999999,118.836567 L62.9999999,118.836567 Z M26.4894103,30.8454854 C28.0235983,30.8860367 29.4628803,30.1050286 30.2650927,28.7966594 C31.0673051,27.4882903 31.1105728,25.8513324 30.3785971,24.5024121 C29.6466215,23.1534918 28.2506071,22.297542 26.7164191,22.2569909 C24.3447699,22.1943042 22.3713508,24.0660866 22.3086641,26.4377338 C22.2459773,28.8093811 24.1177611,30.7827987 26.4894103,30.8454854 L26.4894103,30.8454854 Z M26.4894103,103.803549 C28.0231477,103.8441 29.4620134,103.063332 30.2640006,101.755354 C31.0659877,100.447375 31.1092554,98.8108974 30.377505,97.4623673 C29.6457546,96.1138371 28.2501566,95.2581278 26.7164191,95.2175767 C24.3454665,95.15489 22.372612,97.0261078 22.3099253,99.3970585 C22.2472385,101.768009 24.1184577,103.740862 26.4894103,103.803549 L26.4894103,103.803549 Z" id="形状" fill="#2B2E43"></path>
                </g>
            </g>
        </g>
    </g>
</svg>