<?xml version="1.0" encoding="UTF-8"?>
<svg width="127px" height="127px" viewBox="0 0 127 127" version="1.1" xmlns="http://www.w3.org/2000/svg" xmlns:xlink="http://www.w3.org/1999/xlink">
    <title>激活-solid</title>
    <g id="Coinbase" stroke="none" stroke-width="1" fill="none" fill-rule="evenodd">
        <g id="加入弹窗" transform="translate(-312.000000, -368.000000)" fill-rule="nonzero">
            <g id="激活-solid" transform="translate(312.000000, 368.000000)">
                <rect id="矩形" fill="#000000" opacity="0" x="0" y="0" width="127" height="127"></rect>
                <path d="M74.125,11 L106,42.8 L106,106.4 C106,111.965 101.64375,116.5654 96.1665625,116.9682 L95.375,117 L31.5718749,117 C25.9937499,117 21.4303124,112.654 21.0265625,107.1897 L21,106.4 L21.0531249,21.6000001 C21.0531249,16.0350001 25.3562499,11.4346 30.8334375,11.0318 L31.625,11 L74.125,11 Z M68.8125,42.8 L58.1875,42.8 L58.1875,64.901 C50.6538315,67.5548362 46.2524883,75.3620608 47.8921924,83.1631018 C49.5318965,90.9641428 56.7062373,96.349706 64.6738977,95.7606262 C72.6415582,95.1715465 78.9417848,88.7897568 79.4109376,80.8327999 L79.4375,79.9 L79.4109376,78.9672 C79.0556622,72.9368981 75.3080454,67.6274343 69.736875,65.2614 L68.8125,64.9063 L68.8125,58.7 L79.4375,58.7 L79.4375,48.1 L68.8125,48.1 L68.8125,42.8 L68.8125,42.8 Z M63.5,74.6 C65.3979735,74.6 67.1517734,75.6101742 68.1007602,77.2499999 C69.049747,78.8898257 69.049747,80.9101743 68.1007602,82.5500001 C67.1517734,84.1898258 65.3979735,85.2 63.5,85.2 C60.5659873,85.2 58.1875002,82.8271091 58.1875002,79.9 C58.1875002,76.9728909 60.5659873,74.6 63.5,74.6 L63.5,74.6 Z" id="形状" fill="#1652F0"></path>
            </g>
        </g>
    </g>
</svg>