<?xml version="1.0" encoding="UTF-8"?>
<svg width="40px" height="40px" viewBox="0 0 40 40" version="1.1" xmlns="http://www.w3.org/2000/svg" xmlns:xlink="http://www.w3.org/1999/xlink">
    <title>下单中心</title>
    <g id="Coinbase" stroke="none" stroke-width="1" fill="none" fill-rule="evenodd">
        <g id="充值页面一" transform="translate(-670.000000, -72.000000)" fill-rule="nonzero">
            <g id="编组-4" transform="translate(40.000000, 68.000000)">
                <g id="下单中心" transform="translate(630.000000, 4.000000)">
                    <rect id="矩形" fill="#000000" opacity="0" x="0" y="0" width="40" height="40"></rect>
                    <path d="M13.114948,13.8632407 L28.016205,13.8632407 L28.016205,16.2435069 L13.114948,16.2435069 L13.114948,13.8632407 Z M13.114948,20.0918577 L28.016205,20.0918577 L28.016205,22.4721239 L13.114948,22.4721239 L13.114948,20.0918577 Z M15.650469,2.30751551 L25.4806441,2.30751551 L25.4806441,4.68778168 L15.650469,4.68778168 L15.650469,2.30751551 L15.650469,2.30751551 Z M15.650469,5.9378941 L25.4806441,5.9378941 L25.4806441,8.31816027 L15.650469,8.31816027 L15.650469,5.9378941 L15.650469,5.9378941 Z M13.114948,26.0995445 L28.016205,26.0995445 L28.016205,28.4798107 L13.114948,28.4798107 L13.114948,26.0995445 Z M19.4161159,2.35676211 L21.796382,2.35676211 L21.796382,8.31820027 L19.4161159,8.31820027 L19.4161159,2.35676211 Z M29.3732849,4.04102016 L27.8563134,4.04102016 L27.8563134,6.30128773 L28.1248514,6.30128773 C30.3603757,6.30128773 32.172627,8.14643672 32.172627,10.4225735 L32.172627,29.761142 C32.172627,32.0372388 30.3603757,33.8824277 28.1248514,33.8824277 L12.8905002,33.8824277 C10.6549759,33.8824277 8.84276461,32.0372787 8.84276461,29.7611419 L8.84276461,10.4225735 C8.84276461,8.14647668 10.6550159,6.3012877 12.8905002,6.3012877 L13.675528,6.3012877 L13.675528,4.04102016 L11.6420267,4.04102016 C9.04011078,4.04102016 6.93086086,6.1886041 6.93086086,8.83776797 L6.93086086,31.3459475 C6.93086086,33.9951113 9.04011078,36.1426953 11.6420267,36.1426953 L29.3732849,36.1426953 C31.9752008,36.1426953 34.0844907,33.9951113 34.0844907,31.3459475 L34.0844907,8.83776801 C34.0844907,6.18860414 31.9752008,4.04102016 29.3732849,4.04102016 Z" id="形状" fill="#353F52"></path>
                </g>
            </g>
        </g>
    </g>
</svg>